<svg id="Layer_1" data-name="Layer 1" xmlns="http://www.w3.org/2000/svg" viewBox="0 0 358.63 355.97"><defs><style>.cls-1{fill:#fff;}.cls-2,.cls-3{fill:#231f20;}.cls-3{font-size:48.65px;font-family:ChunkFive-Roman, ChunkFive;}</style></defs><title>brainly logo 6</title><rect class="cls-1" width="358.63" height="355.97"/><path class="cls-2" d="M265.87,68.44c-1.53-.4-3.22.86-12.13,11.47-7,8.38-7.55,9.45-7.92,10.86-1.5,5.66,1.53,8.18,1.87,16,.25,5.75-1.27,9.92-2.72,14.71-3.6,11.84-12.1,21.27-20.91,29.63-9.67,9.17-18.87,18.88-28.34,28.27-13.43,13.33-30.31,23.76-31.59,44.21-.26,4.23.67,12.42,2.83,16.23,3.53,6.23,2.77,4.08,5.7.82,18.77-20.87,39.1-40.28,59.21-59.86,17.16-16.71,32.94-31.24,39.38-55a93.34,93.34,0,0,0,3.29-30.38c-.06-1-1.73-7-5-19C268.17,71.1,267.54,68.89,265.87,68.44Z" transform="translate(-0.74 -1.46)"/><path class="cls-2" d="M177.91,273.16l-9.52-10.28a4.4,4.4,0,0,1,.26-6.25l11.44-10.44a4.48,4.48,0,0,1,6.3.26l9.53,10.29a4.4,4.4,0,0,1-.27,6.24l-11.44,10.45A4.49,4.49,0,0,1,177.91,273.16Z" transform="translate(-0.74 -1.46)"/><path class="cls-2" d="M241.34,43.89,222,63.07c-21.15-17.8-52-18-72.48-1.16-35.69,29.31-18.65,83.41,22.5,96.73-.71-.23-10.84,15.44-12.12,16.81-7.51,8-11.9,4.57-19.94-1.23-18.83-13.58-32.64-33.14-36.28-56.21-3.85-24.37,3-50.23,19.7-68.7a77.63,77.63,0,0,1,13.34-11.73C168.74,15.34,212.28,18.22,241.34,43.89Z" transform="translate(-0.74 -1.46)"/><path class="cls-2" d="M219.75,68.44q8.31,11.16,16.63,22.33l-55.76,51.46-36.25-34.64,19.07-18.3,18.16,18.47Q200.68,88.11,219.75,68.44Z" transform="translate(-0.74 -1.46)"/><text class="cls-3" transform="translate(65.43 322.95) scale(1.01 1)">BRAINLY</text></svg>